<svg width="560" height="360" viewBox="0 0 560 360" fill="none" xmlns="http://www.w3.org/2000/svg">
  <defs>
    <linearGradient id="card" x1="0" y1="0" x2="1" y2="1">
      <stop stop-color="#EFF6FF"/>
      <stop offset="1" stop-color="#DBEAFE"/>
    </linearGradient>
  </defs>

  <rect x="0" y="0" width="560" height="360" rx="28" fill="url(#card)"/>
  <rect x="58" y="210" width="444" height="90" rx="16" fill="#BFDBFE"/>

  <rect x="92" y="90" width="190" height="118" rx="12" fill="#1E293B"/>
  <rect x="102" y="100" width="170" height="98" rx="8" fill="#0EA5E9" fill-opacity="0.45"/>
  <rect x="156" y="208" width="64" height="18" rx="8" fill="#475569"/>

  <rect x="324" y="74" width="132" height="170" rx="14" fill="#E2E8F0"/>
  <rect x="342" y="96" width="96" height="104" rx="10" fill="#F8FAFC"/>
  <rect x="360" y="220" width="60" height="12" rx="6" fill="#94A3B8"/>

  <rect x="100" y="238" width="154" height="48" rx="10" fill="#F8FAFC"/>
  <rect x="274" y="238" width="154" height="48" rx="10" fill="#F8FAFC"/>

  <circle cx="128" cy="262" r="8" fill="#0EA5E9"/>
  <rect x="146" y="254" width="84" height="14" rx="7" fill="#CBD5E1"/>

  <circle cx="304" cy="262" r="8" fill="#2563EB"/>
  <rect x="322" y="254" width="84" height="14" rx="7" fill="#CBD5E1"/>
</svg>
